<svg width="157" height="16" viewBox="0 0 157 16" fill="none" xmlns="http://www.w3.org/2000/svg">
<path d="M13.6384 0.0559998H11.4544L8.70939 6.722H8.67239L5.92739 0.0559998H3.74339L0.400391 13.126H3.42539L5.19939 5.676H5.23639L7.64539 11.259H9.71739L12.1444 5.676H12.1824L13.9554 13.126H16.9624L13.6384 0.0559998ZM22.1844 4.22C19.4024 4.22 17.3484 6.05 17.3484 8.813C17.3484 11.576 19.4024 13.406 22.1844 13.406C24.9854 13.406 27.0394 11.576 27.0394 8.813C27.0394 6.05 24.9854 4.22 22.1844 4.22ZM22.1844 6.796C23.3234 6.796 24.2014 7.581 24.2014 8.813C24.2014 10.045 23.3234 10.829 22.1844 10.829C21.0644 10.829 20.1684 10.045 20.1684 8.813C20.1684 7.581 21.0644 6.796 22.1844 6.796ZM36.9484 4.5H28.7894V9.485C28.7894 10.307 28.4724 10.531 28.0244 10.531H27.4454V13.145H28.4724C30.3584 13.145 31.6084 12.155 31.6084 10.008V7.039H34.1294V13.126H36.9484V4.5ZM43.0434 4.22C40.2614 4.22 38.2074 6.05 38.2074 8.813C38.2074 11.576 40.2614 13.406 43.0434 13.406C45.8444 13.406 47.8984 11.576 47.8984 8.813C47.8984 6.05 45.8444 4.22 43.0434 4.22ZM43.0434 6.796C44.1824 6.796 45.0604 7.581 45.0604 8.813C45.0604 10.045 44.1824 10.829 43.0434 10.829C41.9234 10.829 41.0274 10.045 41.0274 8.813C41.0274 7.581 41.9234 6.796 43.0434 6.796ZM57.3484 11.054V4.5H49.6004V8.664C49.6004 9.597 49.4324 10.325 49.0214 11.054H47.9014V15.554H50.2534V13.313H56.0974V15.553H58.4504V11.053L57.3484 11.054ZM52.3634 8.738V6.946H54.5664V11.053H51.8594C52.1954 10.363 52.3634 9.634 52.3634 8.738ZM62.7884 1.008H60.6594V3.53H62.7884V1.01V1.008ZM66.0924 1.008H63.9644V3.53H66.0924V1.01V1.008ZM63.3854 4.238C60.7344 4.238 58.8294 5.938 58.8294 8.85C58.8294 11.595 60.7524 13.406 63.6464 13.406C64.9064 13.4113 66.1425 13.062 67.2134 12.398L66.1864 10.269C65.6444 10.624 64.7294 11.053 63.6844 11.053C62.5264 11.053 61.6674 10.568 61.4814 9.485H67.6614V8.85C67.6614 5.732 65.9804 4.239 63.3854 4.239V4.238ZM63.2924 6.236C64.2074 6.236 64.8974 6.816 64.9354 7.823H61.4994C61.6304 6.703 62.3394 6.236 63.2924 6.236ZM83.1334 13.126L79.2874 8.421L82.5734 4.5H79.1004L76.5614 7.917V4.5H73.9094V7.917L71.3704 4.5H67.8974L71.1844 8.42L67.3374 13.126H70.9784L73.9094 9.168V13.126H76.5614V9.168L79.5114 13.126H83.1334ZM88.5624 6.852H86.6394V4.5H83.8204V13.126H88.5624C90.5424 13.126 91.9054 12.136 91.9054 9.989C91.9054 7.823 90.5424 6.852 88.5624 6.852ZM87.9654 10.96H86.6394V9.018H87.9654C88.6744 9.018 89.0674 9.336 89.0674 9.989C89.0674 10.624 88.6744 10.96 87.9654 10.96ZM104.997 0.309999H100.329V13.38H103.223V8.899H104.997C108.301 8.899 109.814 7.05 109.814 4.493C109.814 2.14 108.301 0.309999 104.997 0.309999ZM104.754 6.285H103.223V2.943H104.754C105.949 2.943 106.733 3.41 106.733 4.549C106.733 5.706 105.949 6.285 104.754 6.285ZM114.574 4.474C111.792 4.474 109.738 6.304 109.738 9.067C109.738 11.83 111.792 13.66 114.574 13.66C117.374 13.66 119.428 11.83 119.428 9.067C119.428 6.304 117.374 4.474 114.574 4.474ZM114.574 7.05C115.713 7.05 116.59 7.835 116.59 9.067C116.59 10.299 115.713 11.083 114.574 11.083C113.454 11.083 112.557 10.299 112.557 9.067C112.557 7.835 113.454 7.05 114.574 7.05ZM125.002 13.66C126.099 13.6733 127.179 13.3826 128.12 12.82L126.963 10.56C126.44 10.897 125.899 11.083 125.133 11.083C124.013 11.083 123.023 10.355 123.023 9.067C123.023 7.779 124.013 7.05 125.133 7.05C125.899 7.05 126.44 7.237 126.963 7.573L128.12 5.314C127.179 4.75144 126.099 4.4607 125.002 4.474C122.239 4.474 120.204 6.284 120.204 9.067C120.204 11.849 122.239 13.66 125.002 13.66ZM133.025 13.66C134.122 13.6733 135.202 13.3826 136.143 12.82L134.986 10.56C134.463 10.897 133.921 11.083 133.156 11.083C132.036 11.083 131.046 10.355 131.046 9.067C131.046 7.779 132.036 7.05 133.156 7.05C133.921 7.05 134.463 7.237 134.986 7.573L136.143 5.314C135.202 4.75144 134.122 4.4607 133.025 4.474C130.262 4.474 128.227 6.284 128.227 9.067C128.227 11.849 130.262 13.66 133.025 13.66ZM137.117 13.38H139.6L143.26 8.712H143.297V13.38H146.117V4.754H143.633L139.974 9.422H139.937V4.754H137.117V13.38ZM147.857 13.38H150.34L153.999 8.712H154.037V13.38H156.856V4.754H154.373L150.713 9.422H150.676V4.754H147.857V13.38Z" fill="#8C64D8"/>
</svg>
