<svg width="44" height="44" viewBox="0 0 44 44" fill="none" xmlns="http://www.w3.org/2000/svg">
<rect width="44" height="44" rx="22" fill="#8C64D8"/>
<rect width="44" height="44" rx="22" fill="url(#paint0_linear_28_1630)"/>
<path d="M28.25 21C28.6297 21 28.9435 21.2822 28.9932 21.6482L29 21.75V22.25C29 25.8094 26.245 28.7254 22.751 28.9817L22.75 31.25C22.75 31.6642 22.4142 32 22 32C21.6203 32 21.3065 31.7178 21.2568 31.3518L21.25 31.25V28.9818C17.8332 28.7316 15.1228 25.938 15.0041 22.4863L15 22.25V21.75C15 21.3358 15.3358 21 15.75 21C16.1297 21 16.4435 21.2822 16.4932 21.6482L16.5 21.75V22.25C16.5 25.077 18.7344 27.3821 21.5336 27.4956L21.75 27.5H22.25C25.077 27.5 27.3821 25.2656 27.4956 22.4664L27.5 22.25V21.75C27.5 21.3358 27.8358 21 28.25 21ZM22 12C24.2091 12 26 13.7909 26 16V22C26 24.2091 24.2091 26 22 26C19.7909 26 18 24.2091 18 22V16C18 13.7909 19.7909 12 22 12Z" fill="white"/>
<defs>
<linearGradient id="paint0_linear_28_1630" x1="0" y1="22" x2="44" y2="22" gradientUnits="userSpaceOnUse">
<stop stop-color="#7A4CD2"/>
<stop offset="1" stop-color="#8C64D8"/>
</linearGradient>
</defs>
</svg>
