<svg width="42" height="42" viewBox="0 0 42 42" fill="none" xmlns="http://www.w3.org/2000/svg">
<rect width="42" height="42" rx="21" fill="#DAEF14"/>
<rect width="42" height="42" rx="21" fill="url(#paint0_linear_24_2918)"/>
<path d="M23.8402 13H21.1594L17.7911 21.16H17.7454L14.3771 13H11.6963L7.59473 29H11.3065L13.4832 19.8796H13.5289L16.4853 26.7142H19.0283L22.0069 19.8796H22.0526L24.23 29H27.9189L23.8402 13Z" fill="white"/>
<path d="M24.8926 13H28.4574C32.5381 13 34.406 15.2107 34.406 18.0535C34.406 21.1449 32.5387 23.3785 28.4581 23.3785H27.3481L26.628 20.2198H28.1577C29.6333 20.2198 30.6015 19.5205 30.6015 18.1214C30.6015 16.745 29.6333 16.1809 28.1577 16.1809H25.7603L24.8926 13Z" fill="white"/>
<defs>
<linearGradient id="paint0_linear_24_2918" x1="35.7955" y1="6.20454" x2="7.15909" y2="36.2727" gradientUnits="userSpaceOnUse">
<stop offset="0.0625" stop-color="#F59905"/>
<stop offset="1" stop-color="#FAA419"/>
</linearGradient>
</defs>
</svg>
